<svg width="59" height="16" viewBox="0 0 59 16" fill="none" xmlns="http://www.w3.org/2000/svg">
<path d="M6.45938 0.414062H6.49063V0.484375C6.26146 0.515625 5.85781 0.747396 5.27969 1.17969C4.83698 1.5599 4.49323 2.07031 4.24844 2.71094C4.01406 3.10677 3.86823 3.51562 3.81094 3.9375C3.69635 4.05729 3.57396 4.5 3.44375 5.26562V6.13281L3.34219 7.14844V8.05469L3.27188 8.15625C3.46458 9.25 3.62083 9.79688 3.74063 9.79688C3.99583 10.3594 4.18594 10.651 4.31094 10.6719C4.67552 11.1406 5.02188 11.4557 5.35 11.6172C5.56354 11.6172 5.74323 11.7682 5.88906 12.0703C6.4776 12.2057 6.96719 12.4141 7.35781 12.6953L8.33438 13.1797C9.17813 13.4349 9.74583 13.5625 10.0375 13.5625H10.6781C11.1729 13.5625 11.462 13.3438 11.5453 12.9062L11.5766 12.7344C11.5766 12.3125 11.4333 12.1016 11.1469 12.1016C10.8969 12.1745 10.7719 12.349 10.7719 12.625V12.6641C10.7719 12.7318 10.8734 12.7891 11.0766 12.8359H11.1078C11.2328 12.8359 11.3109 12.7656 11.3422 12.625C11.2849 12.4375 11.2302 12.3438 11.1781 12.3438H11.0453L10.9438 12.4531V12.5938L11.0766 12.7344C11.1443 12.7344 11.1781 12.6641 11.1781 12.5234L11.2406 12.5938V12.6641L11.1469 12.7656H11.1078C10.9776 12.7656 10.8891 12.6953 10.8422 12.5547C10.8422 12.4349 10.9099 12.3307 11.0453 12.2422H11.1469C11.3448 12.2786 11.4438 12.3724 11.4438 12.5234C11.4438 12.7214 11.3656 12.8724 11.2094 12.9766H11.0063C10.7615 12.9297 10.6391 12.8125 10.6391 12.625V12.4844C10.6391 12.2135 10.8083 12.0391 11.1469 11.9609C11.5688 11.9609 11.7797 12.2865 11.7797 12.9375C11.7797 13.526 11.3552 13.8854 10.5063 14.0156L9.975 14.0859C9.13646 14.0859 8.1651 13.7734 7.06094 13.1484L4.98281 12.2109L3.67813 11.4766C3.36563 11.3359 3.0974 11.2656 2.87344 11.2656C2.2224 11.3229 1.58698 11.5547 0.967188 11.9609H0.63125C0.516667 11.9609 0.448959 11.9271 0.428125 11.8594V11.8203C0.85 11.8203 1.39688 11.3672 2.06875 10.4609C2.225 10.2786 2.35781 9.60417 2.46719 8.4375C2.55573 8.4375 2.62344 7.89062 2.67031 6.79688V6.38281L2.70156 6.34375L2.67031 6.3125V5.57812L2.74063 5.29688V5.19531L2.67031 4.91406V3.96875C2.67031 3.65104 2.50365 3.25521 2.17031 2.78125L1.6 2.50781H1.49844C1.30052 2.50781 1.20156 2.59896 1.20156 2.78125C1.20156 2.92188 1.30052 2.99219 1.49844 2.99219L1.52969 2.96094V2.82031L1.36563 2.78125C1.36563 2.73438 1.39948 2.71094 1.46719 2.71094C1.55573 2.7474 1.6 2.78385 1.6 2.82031V2.96094L1.49844 3.0625H1.39688C1.15208 3.03125 1.02969 2.91406 1.02969 2.71094V2.67969C1.02969 2.44531 1.19635 2.32812 1.52969 2.32812L2.40469 2.39844C2.68073 2.39844 3.70677 1.81771 5.48281 0.65625L6.45938 0.414062ZM9.30156 4.78125H9.33281C9.4526 4.78125 9.56979 4.86458 9.68438 5.03125C9.78854 5.05729 10.0906 5.33073 10.5906 5.85156L11.0906 6.47656L11.2391 6.98438V7.07812C11.213 7.3125 11.0958 7.57292 10.8875 7.85938C10.6323 8.40625 10.3979 8.67969 10.1844 8.67969L10.0984 8.71094C9.66094 8.71094 9.0151 8.44792 8.16094 7.92188C8.02552 7.78125 7.95781 7.63542 7.95781 7.48438V7.42188C8.04635 7.08333 8.2599 6.91406 8.59844 6.91406H8.62969C8.78594 6.91406 8.86406 7.01042 8.86406 7.20312C8.81198 7.39062 8.7625 7.48438 8.71563 7.48438H8.54375L8.42656 7.35938V7.29688L8.48125 7.23438C8.48125 7.31771 8.50208 7.35938 8.54375 7.35938L8.62969 7.26562V7.17188C8.60885 7.10938 8.55156 7.07812 8.45781 7.07812C8.36406 7.07812 8.29375 7.18229 8.24688 7.39062C8.24688 7.55208 8.49167 7.71875 8.98125 7.89062C9.22083 8.07292 9.52292 8.1875 9.8875 8.23438C10.1688 8.23438 10.4135 8.02604 10.6219 7.60938L10.6844 7.54688V7.10938C10.6063 6.60938 10.4786 6.26302 10.3016 6.07031C9.8849 5.73698 9.62969 5.57031 9.53594 5.57031H9.36406C9.24948 5.57031 9.03333 5.72656 8.71563 6.03906C8.52813 6.08073 8.2651 6.47917 7.92656 7.23438L7.66094 7.92188V8.14062L8.075 9.17969C8.16875 9.61198 8.41354 9.97656 8.80938 10.2734C9.23646 10.5703 9.5099 10.7188 9.62969 10.7188L10.0672 10.75C10.2599 10.75 10.4448 10.625 10.6219 10.375V10.0859L10.6844 9.99219L10.45 9.05469C10.45 9.00781 10.5359 8.97656 10.7078 8.96094C10.9161 9.03906 11.0542 9.13281 11.1219 9.24219V9.74219C11.1219 10.2318 10.9552 10.6198 10.6219 10.9062C10.3354 11.1875 10.1219 11.3646 9.98125 11.4375H9.91875C9.29896 11.25 8.9474 11.0833 8.86406 10.9375C8.73385 10.8958 8.60625 10.7812 8.48125 10.5938C8.18438 10.2344 7.98125 10.0234 7.87188 9.96094L7.34063 9.08594C7.23125 9.08594 7.10365 8.86458 6.95781 8.42188V8.14062L6.87188 7.95312L7.40313 7.04688C7.42396 6.82812 7.66615 6.47135 8.12969 5.97656C8.12969 5.91406 8.41354 5.59896 8.98125 5.03125L9.30156 4.78125ZM8.19219 5.47656H8.22344L8.12969 5.57031V5.53906L8.19219 5.47656ZM15.8156 4.71875H15.9094L16.5031 4.89062C16.7427 4.97396 16.9641 5.10938 17.1672 5.29688L17.9875 5.86719C18.0396 5.91406 18.1073 6.13021 18.1906 6.51562C18.4302 7.21354 18.55 7.72917 18.55 8.0625V8.60938C18.5083 8.65104 18.4745 8.78385 18.4484 9.00781L18.3859 9.14844L18.4172 9.17969L18.1203 9.55469V9.58594L18.1906 9.6875C17.2844 10.5833 16.7453 11.0443 16.5734 11.0703L15.1906 11.7422C14.9771 11.7422 14.7115 11.474 14.3937 10.9375C14.3156 10.7396 14.1516 10.526 13.9016 10.2969C13.9016 10.224 13.7922 9.96354 13.5734 9.51562C13.5109 9.15104 13.412 8.86979 13.2766 8.67188C13.0786 8.35938 12.9797 8.04427 12.9797 7.72656L12.8469 7.5625C12.8469 7.43229 12.9797 7.29688 13.2453 7.15625C13.2453 7.08854 13.2766 7.05469 13.3391 7.05469C13.412 6.90365 13.5891 6.74479 13.8703 6.57812C14.1464 6.1875 14.3547 5.92969 14.4953 5.80469C15.0995 5.25781 15.5396 4.89583 15.8156 4.71875ZM16.0422 5.29688C15.6568 5.52604 15.175 5.95312 14.5969 6.57812C14.5396 6.57812 14.2974 6.84896 13.8703 7.39062L13.8391 7.5625C13.9901 8.80208 14.175 9.57812 14.3937 9.89062L15.2531 11H15.5187C15.8729 10.7344 16.0917 10.6016 16.175 10.6016C16.4198 10.5234 16.7609 10.1276 17.1984 9.41406L17.3 9.21094L17.2609 9.10938C17.3547 9.10938 17.4328 8.88542 17.4953 8.4375C17.6516 8.23438 17.7505 7.97656 17.7922 7.66406L17.4328 6.91406C17.2714 6.50781 17.0839 6.18229 16.8703 5.9375C16.5161 5.66146 16.3391 5.48177 16.3391 5.39844L16.2453 5.29688L16.0812 5.32812L16.0422 5.29688ZM29.3438 0.796875L29.3828 0.835938C29.1276 1.36198 29 1.78125 29 2.09375C29.026 2.30729 29.1276 2.64323 29.3047 3.10156L29.2656 3.14062C29.2656 3.49479 29.4557 4.15625 29.8359 5.125C29.8776 5.65625 30.0312 6.14062 30.2969 6.57812C30.3073 6.68229 30.4453 6.95312 30.7109 7.39062H30.75C30.8281 7.03646 30.9688 6.6849 31.1719 6.33594L31.7812 5.32812C31.9844 4.44792 32.3125 3.57031 32.7656 2.69531C32.8438 2.69531 32.8828 2.50781 32.8828 2.13281V1.89062C32.8828 1.75521 32.7812 1.58073 32.5781 1.36719V1.24219H32.6172C32.9349 1.52865 33.263 1.75781 33.6016 1.92969C33.9922 2.20052 34.349 2.52344 34.6719 2.89844L34.5938 2.98438H34.5547L34.25 2.78125H34.0938C33.9688 2.78125 33.8568 2.84896 33.7578 2.98438V3.0625L33.8672 4.3125C33.8255 4.3125 33.7891 5.05469 33.7578 6.53906C33.7578 6.77344 33.8203 7.11198 33.9453 7.55469V8.5625C34.0234 8.66146 34.0625 8.75521 34.0625 8.84375L33.8281 9.21094V9.28906C33.8802 9.34635 33.9193 9.52344 33.9453 9.82031C34.0234 9.82031 34.138 10.2109 34.2891 10.9922C34.6589 11.4661 34.8984 11.7083 35.0078 11.7188C35.1693 11.9323 35.7161 12.3359 36.6484 12.9297C36.7422 12.9297 36.8802 13.0365 37.0625 13.25L39.3438 14.4219C41 15.125 42.1406 15.4766 42.7656 15.4766L43.0703 15.4375L43.1875 15.4766C43.5938 15.2943 43.9219 15.0365 44.1719 14.7031C44.3229 14.4167 44.3984 14.1875 44.3984 14.0156V13.8984C44.2057 13.2786 43.9661 12.9688 43.6797 12.9688H43.4922C43.0703 12.9688 42.7656 13.2109 42.5781 13.6953C42.5781 14.0234 42.7943 14.2786 43.2266 14.4609C43.6797 14.4609 43.9062 14.2995 43.9062 13.9766V13.8203C43.9062 13.5547 43.7161 13.3906 43.3359 13.3281H43.1875L42.9609 13.6953C43.0495 14.0182 43.138 14.1797 43.2266 14.1797H43.3359C43.5651 14.1797 43.6797 14.0859 43.6797 13.8984C43.6432 13.6276 43.5286 13.4922 43.3359 13.4922L43.1875 13.6953C43.1875 13.9089 43.2891 14.0156 43.4922 14.0156C43.4922 14.0729 43.4531 14.1016 43.375 14.1016C43.2083 14.0286 43.1068 13.9479 43.0703 13.8594V13.7734C43.0703 13.5599 43.2109 13.4271 43.4922 13.375C43.7161 13.5677 43.8281 13.7969 43.8281 14.0625L43.3359 14.3828C43.0859 14.2422 42.9089 14.0677 42.8047 13.8594V13.7344C42.8047 13.6562 42.8932 13.4688 43.0703 13.1719C43.7318 13.1719 44.0625 13.3594 44.0625 13.7344L44.1016 14.2188V14.3438C43.9974 14.5 43.7422 14.6354 43.3359 14.75H43.2578C42.9557 14.75 42.6536 14.3568 42.3516 13.5703C42.8932 12.9453 43.3229 12.612 43.6406 12.5703C44.224 12.9714 44.5156 13.3047 44.5156 13.5703C44.5885 13.5703 44.6901 13.7865 44.8203 14.2188C44.7734 14.474 44.3932 14.9609 43.6797 15.6797C43.4141 15.8151 43.0833 15.8828 42.6875 15.8828H42.0469C41.3698 15.8828 40.1276 15.4245 38.3203 14.5078L37.5938 14.1406C37.4948 14.0312 37.3438 13.9766 37.1406 13.9766C35.2344 12.6849 34.2448 12.0391 34.1719 12.0391C33.5156 11.8516 32.9844 11.7578 32.5781 11.7578L31.5469 11.9609V11.9219C31.5469 11.8802 31.763 11.7031 32.1953 11.3906C32.7005 10.6719 32.9531 10.1745 32.9531 9.89844L33.0312 9.17188L32.9922 7.46875L33.0703 6.94531L33.0312 6.625L33.0703 6.42188C33.0443 5.86458 32.9948 5.45833 32.9219 5.20312V4.64062H32.8828C32.8828 4.80729 32.6797 5.33333 32.2734 6.21875C32.2734 6.375 32.1979 6.6849 32.0469 7.14844C31.8958 7.76823 31.7682 8.07812 31.6641 8.07812C31.6641 8.15625 31.6016 8.26302 31.4766 8.39844C31.2786 9.08594 31.0495 9.57292 30.7891 9.85938C30.6016 10.2344 30.487 10.4219 30.4453 10.4219C30.3255 10.4219 30.2005 9.89583 30.0703 8.84375C29.8672 7.53125 29.5885 6.52083 29.2344 5.8125C29.1562 5.8125 29.1172 5.70573 29.1172 5.49219L28.6953 4.5625L28.6562 4.27344C28.6094 4.27344 28.5859 4.3151 28.5859 4.39844L28.5469 4.92188L28.625 5.89062C28.6042 6.34896 28.5651 6.57812 28.5078 6.57812L28.5469 7.1875V7.22656L28.4297 8.39844C28.4297 9.3724 28.7214 10.3698 29.3047 11.3906L29.5703 11.4766V11.5547H29.3047L27.6328 11.3516H27.4453C27.1172 11.3516 26.724 11.4323 26.2656 11.5938H26.2266C27.0651 10.8958 27.4844 9.96615 27.4844 8.80469C27.4844 8.20052 27.5729 7.45833 27.75 6.57812L27.8203 5.6875L27.7891 5V4.88281L27.7109 4.64062L27.75 4.47656L27.7109 3.91406V3.82812L27.6328 3.71094V3.625L27.7109 3.50781V3.38281C27.7109 3.15885 27.6354 3.01042 27.4844 2.9375C26.8229 2.97917 26.4922 3.08854 26.4922 3.26562V3.30469C26.4922 3.52344 26.5807 3.67188 26.7578 3.75C26.8828 3.71354 26.9453 3.61979 26.9453 3.46875L26.875 3.38281H26.7969C26.7448 3.38281 26.7188 3.42448 26.7188 3.50781H26.6484V3.38281C26.6693 3.30469 26.7448 3.26562 26.875 3.26562L27.0234 3.42969V3.50781C27.0234 3.72135 26.8984 3.82812 26.6484 3.82812C26.4193 3.72396 26.3047 3.54948 26.3047 3.30469V3.26562C26.3047 2.90625 26.5964 2.70312 27.1797 2.65625L27.7109 2.375L28.2031 2.09375C28.625 1.375 29.0052 0.942708 29.3438 0.796875ZM43.5625 13.7734L43.6016 13.8203V13.9375L43.5312 14.0156H43.4922L43.5312 13.9766V13.9375L43.4922 13.8203L43.5312 13.7734H43.5625ZM38.8891 4.78125H38.9203C39.0401 4.78125 39.1573 4.86458 39.2719 5.03125C39.376 5.05729 39.6781 5.33073 40.1781 5.85156L40.6781 6.47656L40.8266 6.98438V7.07812C40.8005 7.3125 40.6833 7.57292 40.475 7.85938C40.2198 8.40625 39.9854 8.67969 39.7719 8.67969L39.6859 8.71094C39.2484 8.71094 38.6026 8.44792 37.7484 7.92188C37.613 7.78125 37.5453 7.63542 37.5453 7.48438V7.42188C37.6339 7.08333 37.8474 6.91406 38.1859 6.91406H38.2172C38.3734 6.91406 38.4516 7.01042 38.4516 7.20312C38.3995 7.39062 38.35 7.48438 38.3031 7.48438H38.1312L38.0141 7.35938V7.29688L38.0687 7.23438C38.0687 7.31771 38.0896 7.35938 38.1312 7.35938L38.2172 7.26562V7.17188C38.1964 7.10938 38.1391 7.07812 38.0453 7.07812C37.9516 7.07812 37.8812 7.18229 37.8344 7.39062C37.8344 7.55208 38.0792 7.71875 38.5687 7.89062C38.8083 8.07292 39.1104 8.1875 39.475 8.23438C39.7562 8.23438 40.001 8.02604 40.2094 7.60938L40.2719 7.54688V7.10938C40.1937 6.60938 40.0661 6.26302 39.8891 6.07031C39.4724 5.73698 39.2172 5.57031 39.1234 5.57031H38.9516C38.837 5.57031 38.6208 5.72656 38.3031 6.03906C38.1156 6.08073 37.8526 6.47917 37.5141 7.23438L37.2484 7.92188V8.14062L37.6625 9.17969C37.7562 9.61198 38.001 9.97656 38.3969 10.2734C38.824 10.5703 39.0974 10.7188 39.2172 10.7188L39.6547 10.75C39.8474 10.75 40.0323 10.625 40.2094 10.375V10.0859L40.2719 9.99219L40.0375 9.05469C40.0375 9.00781 40.1234 8.97656 40.2953 8.96094C40.5036 9.03906 40.6417 9.13281 40.7094 9.24219V9.74219C40.7094 10.2318 40.5427 10.6198 40.2094 10.9062C39.9229 11.1875 39.7094 11.3646 39.5687 11.4375H39.5062C38.8865 11.25 38.5349 11.0833 38.4516 10.9375C38.3214 10.8958 38.1937 10.7812 38.0687 10.5938C37.7719 10.2344 37.5687 10.0234 37.4594 9.96094L36.9281 9.08594C36.8187 9.08594 36.6911 8.86458 36.5453 8.42188V8.14062L36.4594 7.95312L36.9906 7.04688C37.0115 6.82812 37.2536 6.47135 37.7172 5.97656C37.7172 5.91406 38.001 5.59896 38.5687 5.03125L38.8891 4.78125ZM37.7797 5.47656H37.8109L37.7172 5.57031V5.53906L37.7797 5.47656ZM44.2469 4.40625C44.2469 4.4375 44.5906 4.46875 45.2781 4.5C45.3719 4.54167 45.4865 4.67708 45.6219 4.90625L45.9344 5.4375V5.5L45.6531 6.09375C45.4604 6.55208 45.3146 6.78125 45.2156 6.78125C45.0437 6.78125 44.5958 6.53125 43.8719 6.03125H43.8094V5.8125C43.9396 5.33333 44.1062 5.09375 44.3094 5.09375H44.4344C44.6844 5.09375 44.8094 5.20833 44.8094 5.4375C44.851 5.4375 44.8719 5.48958 44.8719 5.59375C44.8719 5.68229 44.7573 5.81771 44.5281 6C44.4187 6 44.3042 5.90625 44.1844 5.71875V5.6875C44.2417 5.52083 44.2937 5.4375 44.3406 5.4375H44.4656L44.5594 5.53125V5.625L44.4969 5.6875H44.4656V5.65625L44.4969 5.625V5.59375L44.4031 5.53125L44.3406 5.59375V5.65625C44.3823 5.73958 44.4344 5.78125 44.4969 5.78125C44.575 5.78125 44.6271 5.6875 44.6531 5.5C44.6531 5.38542 44.5698 5.30208 44.4031 5.25C44.226 5.31771 44.1219 5.40104 44.0906 5.5V5.5625C44.0906 5.83333 44.351 6.05208 44.8719 6.21875L45.0594 6.34375H45.1219C45.226 6.34375 45.2781 6.09375 45.2781 5.59375C45.2781 5.41667 45.0385 5.16667 44.5594 4.84375C43.7677 4.96875 43.3719 5.09375 43.3719 5.21875V5.375C43.3979 5.71354 43.6271 6.18229 44.0594 6.78125C44.0594 6.90625 44.4344 7.11458 45.1844 7.40625C45.2625 7.40625 45.3354 7.46875 45.4031 7.59375L45.4344 7.5625H45.5281C45.5698 7.5625 45.6115 7.625 45.6531 7.75C46.3406 8.36979 46.6844 8.75521 46.6844 8.90625C46.7677 9.04688 46.8094 9.20312 46.8094 9.375C46.8094 9.41667 46.5906 9.61458 46.1531 9.96875C45.6167 10.6927 45.1375 11.1823 44.7156 11.4375H44.6844L43.4031 11.2188C43.226 11.2188 42.9344 10.7812 42.5281 9.90625L42.4969 9.625V9.59375C42.4969 9.44792 42.674 9.3125 43.0281 9.1875C43.2781 8.97396 43.6323 8.75521 44.0906 8.53125L44.1219 8.5625H44.1531L44.2469 8.53125C44.2469 8.5625 44.3823 8.625 44.6531 8.71875C44.799 8.82812 44.8719 8.93229 44.8719 9.03125C44.8562 9.26042 44.7417 9.5625 44.5281 9.9375H44.4344C43.8927 9.9375 43.6219 9.75 43.6219 9.375C43.8562 9.0625 44.0333 8.90625 44.1531 8.90625H44.1844C44.299 8.90625 44.4031 8.97917 44.4969 9.125C44.4969 9.35417 44.424 9.5 44.2781 9.5625H44.1531C44.0385 9.5625 43.9656 9.51042 43.9344 9.40625C43.9344 9.29688 43.9969 9.20312 44.1219 9.125H44.1844V9.1875L44.0594 9.21875V9.3125L44.1531 9.40625H44.2469L44.3406 9.3125V9.1875L44.2156 9.0625H44.0906C43.9448 9.16146 43.8719 9.27604 43.8719 9.40625C43.8719 9.59375 44.0073 9.6875 44.2781 9.6875C44.4656 9.58854 44.5594 9.46354 44.5594 9.3125V9.1875C44.5594 8.96875 44.4135 8.83333 44.1219 8.78125C43.7052 8.78125 43.3719 9.16667 43.1219 9.9375V10.125C43.1219 10.2969 43.2677 10.474 43.5594 10.6562C43.6531 10.7656 43.976 10.849 44.5281 10.9062H44.7156C45.075 10.9062 45.45 10.3021 45.8406 9.09375V8.875C45.4344 8.44792 44.9031 8.05208 44.2469 7.6875C43.8979 7.39583 43.3875 7.0625 42.7156 6.6875C42.7156 6.48438 42.6219 6.03646 42.4344 5.34375C42.4344 5.16667 42.5906 4.98958 42.9031 4.8125C42.9344 4.73438 43.1948 4.65104 43.6844 4.5625C43.8354 4.47917 44.0229 4.42708 44.2469 4.40625ZM50.5344 4.40625C50.5344 4.4375 50.8781 4.46875 51.5656 4.5C51.6594 4.54167 51.774 4.67708 51.9094 4.90625L52.2219 5.4375V5.5L51.9406 6.09375C51.7479 6.55208 51.6021 6.78125 51.5031 6.78125C51.3313 6.78125 50.8833 6.53125 50.1594 6.03125H50.0969V5.8125C50.2271 5.33333 50.3938 5.09375 50.5969 5.09375H50.7219C50.9719 5.09375 51.0969 5.20833 51.0969 5.4375C51.1385 5.4375 51.1594 5.48958 51.1594 5.59375C51.1594 5.68229 51.0448 5.81771 50.8156 6C50.7063 6 50.5917 5.90625 50.4719 5.71875V5.6875C50.5292 5.52083 50.5813 5.4375 50.6281 5.4375H50.7531L50.8469 5.53125V5.625L50.7844 5.6875H50.7531V5.65625L50.7844 5.625V5.59375L50.6906 5.53125L50.6281 5.59375V5.65625C50.6698 5.73958 50.7219 5.78125 50.7844 5.78125C50.8625 5.78125 50.9146 5.6875 50.9406 5.5C50.9406 5.38542 50.8573 5.30208 50.6906 5.25C50.5135 5.31771 50.4094 5.40104 50.3781 5.5V5.5625C50.3781 5.83333 50.6385 6.05208 51.1594 6.21875L51.3469 6.34375H51.4094C51.5135 6.34375 51.5656 6.09375 51.5656 5.59375C51.5656 5.41667 51.326 5.16667 50.8469 4.84375C50.0552 4.96875 49.6594 5.09375 49.6594 5.21875V5.375C49.6854 5.71354 49.9146 6.18229 50.3469 6.78125C50.3469 6.90625 50.7219 7.11458 51.4719 7.40625C51.55 7.40625 51.6229 7.46875 51.6906 7.59375L51.7219 7.5625H51.8156C51.8573 7.5625 51.899 7.625 51.9406 7.75C52.6281 8.36979 52.9719 8.75521 52.9719 8.90625C53.0552 9.04688 53.0969 9.20312 53.0969 9.375C53.0969 9.41667 52.8781 9.61458 52.4406 9.96875C51.9042 10.6927 51.425 11.1823 51.0031 11.4375H50.9719L49.6906 11.2188C49.5135 11.2188 49.2219 10.7812 48.8156 9.90625L48.7844 9.625V9.59375C48.7844 9.44792 48.9615 9.3125 49.3156 9.1875C49.5656 8.97396 49.9198 8.75521 50.3781 8.53125L50.4094 8.5625H50.4406L50.5344 8.53125C50.5344 8.5625 50.6698 8.625 50.9406 8.71875C51.0865 8.82812 51.1594 8.93229 51.1594 9.03125C51.1438 9.26042 51.0292 9.5625 50.8156 9.9375H50.7219C50.1802 9.9375 49.9094 9.75 49.9094 9.375C50.1438 9.0625 50.3208 8.90625 50.4406 8.90625H50.4719C50.5865 8.90625 50.6906 8.97917 50.7844 9.125C50.7844 9.35417 50.7115 9.5 50.5656 9.5625H50.4406C50.326 9.5625 50.2531 9.51042 50.2219 9.40625C50.2219 9.29688 50.2844 9.20312 50.4094 9.125H50.4719V9.1875L50.3469 9.21875V9.3125L50.4406 9.40625H50.5344L50.6281 9.3125V9.1875L50.5031 9.0625H50.3781C50.2323 9.16146 50.1594 9.27604 50.1594 9.40625C50.1594 9.59375 50.2948 9.6875 50.5656 9.6875C50.7531 9.58854 50.8469 9.46354 50.8469 9.3125V9.1875C50.8469 8.96875 50.701 8.83333 50.4094 8.78125C49.9927 8.78125 49.6594 9.16667 49.4094 9.9375V10.125C49.4094 10.2969 49.5552 10.474 49.8469 10.6562C49.9406 10.7656 50.2635 10.849 50.8156 10.9062H51.0031C51.3625 10.9062 51.7375 10.3021 52.1281 9.09375V8.875C51.7219 8.44792 51.1906 8.05208 50.5344 7.6875C50.1854 7.39583 49.675 7.0625 49.0031 6.6875C49.0031 6.48438 48.9094 6.03646 48.7219 5.34375C48.7219 5.16667 48.8781 4.98958 49.1906 4.8125C49.2219 4.73438 49.4823 4.65104 49.9719 4.5625C50.1229 4.47917 50.3104 4.42708 50.5344 4.40625ZM56.2281 3.64062C56.5719 3.71354 57.0068 3.86719 57.5328 4.10156C57.7776 4.3099 57.9 4.50521 57.9 4.6875C57.9938 5.09375 58.0406 5.39062 58.0406 5.57812C58.0406 5.78646 57.9365 5.97396 57.7281 6.14062C57.7281 6.3125 57.2854 6.46615 56.4 6.60156H56.2281C55.8427 6.44531 55.5719 6.27604 55.4156 6.09375L54.8766 5.55469L54.9391 5.5C55.1214 5.63021 55.3818 5.8724 55.7203 6.22656C55.8245 6.22656 55.9938 6.3151 56.2281 6.49219L56.2594 6.46875H56.5172C56.8766 6.42708 57.176 6.32812 57.4156 6.17188C57.525 6.13021 57.6578 5.8776 57.8141 5.41406C57.7151 4.70052 57.5745 4.34375 57.3922 4.34375C57.0432 4.10938 56.6656 3.99219 56.2594 3.99219C55.8063 3.99219 55.4781 4.32292 55.275 4.98438V5.09375C55.8427 5.84896 56.2464 6.22656 56.4859 6.22656H56.5719C57.0042 6.22656 57.2776 5.92969 57.3922 5.33594V5.07031C57.1943 4.65365 56.9104 4.44531 56.5406 4.44531L56.0016 4.36719L55.6969 4.85156V4.98438C56.0667 5.5 56.301 5.77865 56.4 5.82031C56.8167 5.82031 57.025 5.70312 57.025 5.46875C57.0667 5.46875 57.0927 5.38802 57.1031 5.22656C56.8167 4.88802 56.6005 4.71875 56.4547 4.71875C56.2307 4.77604 56.1188 4.83854 56.1188 4.90625C56.1188 5.08854 56.2125 5.29427 56.4 5.52344C56.5719 5.52344 56.6943 5.44271 56.7672 5.28125C56.6995 5.13542 56.6057 5.03646 56.4859 4.98438H56.4L56.3141 5.17188L56.4547 5.39062C56.5693 5.36458 56.6266 5.30208 56.6266 5.20312L56.5719 5.125L56.5953 5.09375H56.6266L56.6813 5.20312C56.6813 5.36458 56.6057 5.44531 56.4547 5.44531C56.3349 5.44531 56.2516 5.33854 56.2047 5.125V4.96094C56.2047 4.91406 56.3089 4.85938 56.5172 4.79688C56.7984 5.07812 56.9391 5.28385 56.9391 5.41406L56.4313 5.71094H56.4C56.301 5.71094 56.1422 5.41667 55.9234 4.82812V4.79688L56.4 4.47656H56.4547C56.9599 4.79427 57.2229 5.01042 57.2438 5.125L57.275 5.20312C57.275 5.59896 57.1995 5.79688 57.0484 5.79688C57.0484 5.83854 56.9729 5.88281 56.8219 5.92969L56.5719 6.09375H56.4859C56.1734 5.875 55.9755 5.6849 55.8922 5.52344C55.6526 5.27344 55.4938 5.14844 55.4156 5.14844C55.5667 4.53906 55.7359 4.23438 55.9234 4.23438L56.8219 4.15625C57.1031 4.36979 57.2438 4.52083 57.2438 4.60938C57.4833 4.83854 57.6161 5.05469 57.6422 5.25781V5.3125C57.3401 6.01042 57.038 6.35938 56.7359 6.35938L56.6578 6.38281H56.3453C56.2359 6.38281 55.9443 6.15885 55.4703 5.71094C55.2047 5.4349 55.0719 5.2474 55.0719 5.14844V5.01562C55.4052 4.27604 55.7073 3.8724 55.9781 3.80469C55.9781 3.76823 56.0615 3.71354 56.2281 3.64062ZM58.0094 6.57812L58.0641 6.65625V6.78906C57.7099 7.14323 57.5328 7.34115 57.5328 7.38281C57.3245 7.79948 57.2203 8.2474 57.2203 8.72656L57.1656 9.02344L57.3609 10.125C57.3922 10.4375 57.4677 10.7083 57.5875 10.9375C57.7177 11.1875 57.9807 11.375 58.3766 11.5C58.4703 11.5 58.5172 11.5182 58.5172 11.5547L58.4859 11.5781H58.4078L57.3609 11.3359L57.2203 11.3672H57.025C56.249 11.4661 55.788 11.5729 55.6422 11.6875C55.5745 11.6875 55.499 11.7422 55.4156 11.8516V11.8984C55.4156 11.9401 55.4625 11.9688 55.5563 11.9844C55.6292 11.9635 55.6656 11.9271 55.6656 11.875H55.7203V11.8984C55.6839 12.0078 55.6083 12.0625 55.4938 12.0625H55.4391C55.3349 12.0625 55.2516 12.0078 55.1891 11.8984V11.8203C55.1891 11.7005 55.301 11.5755 55.525 11.4453C56.0354 11.0495 56.2906 10.7266 56.2906 10.4766C56.3635 10.3359 56.4 10.2109 56.4 10.1016H56.4313L56.4 9.96875L56.4313 8.67188C56.4313 8.52083 56.3557 8.27865 56.2047 7.94531C56.0536 7.44531 55.8271 7.19531 55.525 7.19531L55.4391 7.10938V7.08594L55.525 7.00781H55.6422L55.8922 7.03125C56.6682 6.96354 57.2516 6.85677 57.6422 6.71094C57.762 6.6224 57.8844 6.57812 58.0094 6.57812Z" fill="black"/>
</svg>
